<svg xmlns="http://www.w3.org/2000/svg" xmlns:xlink="http://www.w3.org/1999/xlink" version="1.1" id="Layer_1" x="0px" y="0px" width="100px" height="100px" viewBox="5.0 -10.0 100.0 135.0" enable-background="new 0 0 100 100" xml:space="preserve">
<path fill="#000000" d="M72.652,57.299l22.318-20.361l-1.124-1.179c-11.62-12.185-27.191-18.896-43.845-18.896  c-16.458,0-32.434,6.672-43.831,18.307l-1.142,1.165l22.23,20.757l-0.761,0.76l-1.408,1.408l1.408,1.408l3.19,3.191l1.408,1.407  l1.408-1.407l0.966-0.967l10.491,9.797v5.597l6.039,4.851l6.038-4.851v-5.71l10.336-9.543l0.825,0.826l1.408,1.407l1.407-1.407  l3.19-3.191l1.409-1.408l-1.409-1.408L72.652,57.299z M9.605,36.249c10.712-10.314,25.34-16.2,40.396-16.2  c15.237,0,29.519,5.934,40.4,16.744L70.398,55.044l-0.383-0.382l-1.407-1.407L67.2,54.662l-0.602,0.601L53.794,42.986l0.806-0.806  l1.409-1.408L54.6,39.364l-3.19-3.19l-1.408-1.407l-1.408,1.407l-3.191,3.19l-1.408,1.408l1.408,1.408l0.566,0.565L33.005,55.161  l-0.5-0.499l-1.408-1.407l-1.408,1.407l-0.176,0.176L9.605,36.249z M46.811,40.772l3.191-3.191l3.191,3.191l-3.191,3.19  L46.811,40.772z M31.098,62.451l-3.191-3.191l3.191-3.19l3.191,3.19L31.098,62.451z M54.049,77.33l-4.047,3.254l-4.048-3.254v-3.303  h8.095V77.33z M51.926,72.036h-3.994L35.726,60.639l1.379-1.379l-1.408-1.408l-1.002-1.001l12.965-12.415l0.935,0.935l1.408,1.407  l1.408-1.407l0.694-0.694l12.806,12.276l-0.899,0.899l-1.408,1.408l1.408,1.408l0.11,0.111L51.926,72.036z M68.608,62.451  l-3.191-3.191l3.191-3.19l3.19,3.19L68.608,62.451z"/>
<text x="0.0" y="117.5" font-size="5.0" font-weight="bold" font-family="Helvetica Neue, Helvetica, Arial-Unicode, Arial, Sans-serif" fill="#000000">Created by Ryan Choi</text><text x="0.0" y="122.5" font-size="5.0" font-weight="bold" font-family="Helvetica Neue, Helvetica, Arial-Unicode, Arial, Sans-serif" fill="#000000">from the Noun Project</text></svg>